<svg xmlns="http://www.w3.org/2000/svg" class="ionicon" viewBox="0 0 512 512">
 <path d="m232.07 510.78c-49.399-5.912-91.799-22.436-128.66-50.142-52.953-39.8-87.434-96.349-99.33-162.9-2.1166-11.841-2.4342-17.159-2.4579-41.15-0.030094-30.607 1.0014-39.634 7.3862-64.639 22.716-88.963 93.969-160.2 183.32-183.28 24.652-6.3679 34.019-7.4575 64.109-7.4575 30.013 0 39.269 1.0702 64.109 7.413 88.895 22.699 160.57 94.372 183.32 183.32 6.3458 24.809 7.4192 34.084 7.4192 64.109 0 21.294-0.41283 29.492-1.9478 38.677-8.5076 50.912-30.123 95.963-63.896 133.17-38.633 42.564-89.003 70.104-147.15 80.451-10.084 1.7946-17.869 2.325-37.618 2.5629-13.696 0.165-26.571 0.10026-28.611-0.14388zm64.892-32.619c28.492-5.4035 60.532-18.297 82.93-33.373 15.206-10.235 14.054-8.6131 11.171-15.736-4.7957-11.845-13.546-24.84-25.302-37.579-7.2708-7.878-24.529-23.091-26.195-23.091-0.66055 0-2.1094 1.0179-3.2196 2.262-3.1894 3.574-37.722 32.222-52.866 43.858-21.034 16.161-41.733 29.591-50.015 32.45-10.461 3.6122-24.586 3.4345-34.482-0.43378-15.467-6.046-27.128-16.744-37.311-34.23-3.7111-6.3726-6.6405-11.701-6.5097-11.84 0.13076-0.13961 6.4818 1.8404 14.113 4.4001 7.6316 2.5596 15.299 4.9665 17.039 5.3486l3.1631 0.69474-4.5785-15.486c-2.5182-8.5173-4.2546-15.34-3.8588-15.162 0.39589 0.17843 7.4774 3.7815 15.737 8.0069 8.2593 4.2254 15.288 7.6825 15.618 7.6825 0.33084 0 0.60153-5.0069 0.60153-11.126 0-8.201 0.34826-11.123 1.3246-11.115 0.72851 6e-3 5.6611 1.3657 10.961 3.0205 11.32 3.5342 9.3913 4.327 23.557-9.6838 25.603-25.323 42.848-56.95 46.227-84.774l0.74355-6.1234-7.2641 4.6992c-14.602 9.4461-38.112 20.05-65.212 29.412l-10.326 3.5675-5e-3 10.861c-3e-3 6.7328-0.41951 10.861-1.0952 10.861-0.59951 0-5.3215-3.3379-10.493-7.4176-5.1718-4.0797-9.6882-7.4176-10.036-7.4176s-0.633 4.7685-0.633 10.597c0 5.8281-0.22553 10.597-0.50119 10.597-0.27565 0-5.7391-3.3379-12.141-7.4176-6.4019-4.0797-11.883-7.4176-12.181-7.4176-0.29763 0-0.67549 5.4998-0.83969 12.222l-0.29841 12.222-13.136-8.0349c-7.2249-4.4192-13.662-8.1308-14.305-8.248-0.79017-0.14403-1.3408 4.8698-1.6989 15.469l-0.52983 15.682-12.716-9.352c-19.88-14.621-19.726-14.523-20.618-13.079-0.43706 0.70719-1.4159 8.4222-2.1752 17.144-0.75931 8.7222-1.7088 16.061-2.1101 16.309-0.40123 0.24797-6.8834-6.1111-14.405-14.131l-13.675-14.582-4.4928-15.314c-11.139-37.97-15.194-63.998-11.554-74.176 3.9708-11.104 20.674-29.396 43.197-47.306 59.573-47.372 146.35-91.315 196.33-99.422 11.725-1.9016 54.598-2.143 70.797-0.39863 14.283 1.538 29.117 5.3484 38.89 9.9897 15.702 7.457 26.974 17.784 54.666 50.086 7.5765 8.8378 13.909 15.677 14.071 15.199 0.51808-1.5227-7.1092-20.412-12.999-32.193-25.246-50.497-69.167-90.151-122.4-110.51-44.136-16.879-96.014-18.812-142.87-5.3254-72.845 20.967-132.39 80.601-153.46 153.7-6.7692 23.48-8.1521 34.003-8.2171 62.524-0.05002 21.92 0.26862 27.214 2.3079 38.342 11.331 61.833 44.807 113.89 95.54 148.57 29.977 20.492 62.973 32.999 99.675 37.781 17.929 2.3361 50 1.3641 68.071-2.063zm-82.378-279.43c2.5552-0.64341 6.5913-2.835 8.969-4.8703 5.3796-4.6047 47.584-52.827 45.52-52.01-0.82757 0.32745-23.201 10.488-49.719 22.579-26.518 12.091-49.816 22.662-51.773 23.491-1.9571 0.82951-3.3112 1.7554-3.009 2.0575 0.88159 0.88158 39.119 9.764 42.391 9.8473 1.636 0.0417 5.0653-0.45068 7.6205-1.0941z" stroke-width="1.0596"/>
</svg>
