<?xml version="1.0" encoding="UTF-8" standalone="no"?>
<svg
   class="ionicon"
   viewBox="0 0 512 512"
   version="1.1"
   id="svg1"
   sodipodi:docname="dice.svg"
   inkscape:version="1.4 (e7c3feb100, 2024-10-09)"
   xmlns:inkscape="http://www.inkscape.org/namespaces/inkscape"
   xmlns:sodipodi="http://sodipodi.sourceforge.net/DTD/sodipodi-0.dtd"
   xmlns="http://www.w3.org/2000/svg"
   xmlns:svg="http://www.w3.org/2000/svg">
  <defs
     id="defs1" />
  <sodipodi:namedview
     id="namedview1"
     pagecolor="#ffffff"
     bordercolor="#000000"
     borderopacity="0.25"
     inkscape:showpageshadow="2"
     inkscape:pageopacity="0.0"
     inkscape:pagecheckerboard="0"
     inkscape:deskcolor="#d1d1d1"
     inkscape:zoom="0.76686326"
     inkscape:cx="-28.036289"
     inkscape:cy="460.31674"
     inkscape:window-width="1728"
     inkscape:window-height="1075"
     inkscape:window-x="0"
     inkscape:window-y="0"
     inkscape:window-maximized="1"
     inkscape:current-layer="svg1" />
  <path
     d="M 247.42394,3.327749 59.104323,123.71422 247.42394,119.6406 Z m 17.15212,0 V 119.6406 l 188.35178,4.07362 z m 55.10121,63.141263 c 6.53925,3.752028 8.79047,7.718457 16.18732,4.502433 11.47048,0.857607 23.90577,6.217645 29.58742,16.830528 5.03843,4.82403 1.60801,13.507287 -5.57444,13.507287 -10.39848,0.1072 -21.11856,-6.539237 -15.65132,-8.897659 5.03844,-2.14401 15.75851,0.964804 10.72008,-5.896041 -3.85923,-4.824036 -11.79209,-8.361662 -17.47373,-6.324847 -1.71521,7.289651 -10.07687,4.288033 -12.86409,-0.750405 -2.46562,-6.217646 -9.75528,-8.790465 -16.08012,-8.468863 -6.53925,2.894421 1.71521,9.43367 5.68165,10.612878 8.46885,2.358413 0.21439,8.040062 -4.39524,5.467237 -4.50243,-2.572814 -16.08012,-10.291273 -14.47211,-19.617741 6.21765,-7.922138 16.93773,-4.952676 24.33458,-0.964807 z M 203.36442,62.716985 c 5.89604,0.536004 13.18569,3.216023 10.93447,10.612877 -4.60962,7.504056 -10.50567,14.043307 -19.40333,15.865719 -6.96805,3.644824 -15.97292,4.716834 -23.15537,2.036814 -3.96644,-2.465618 -14.47211,-9.969674 -15.97292,-3.644824 -2.25121,15.865709 0.7504,14.043299 -11.89929,19.081729 V 80.512315 c 10.61288,-4.180831 22.61936,-4.824035 32.48184,1.393611 8.57607,4.502428 20.79695,1.608006 25.94259,-6.110446 1.50081,-6.96805 -8.68327,-4.931235 -13.07849,-3.644826 -2.89443,-8.790465 8.46885,-8.040059 14.1505,-9.433669 z m 37.52027,74.182935 -199.940181,4.39523 76.337671,206.79033 z m 30.23063,0 123.6025,211.18556 76.32696,-206.79033 z M 256,144.93999 130.46788,359.55596 h 251.06424 z m 142.89865,22.61935 c 14.90091,8.89767 23.04817,28.08662 23.69137,46.09635 -1.39361,14.57931 -0.7504,21.22575 -16.29451,22.94096 -15.54411,1.71522 -25.62099,-20.58255 -31.83864,-34.94746 -3.64482,-10.61287 -6.21764,-25.72818 1.82242,-33.55384 6.53924,-5.14564 16.08012,-4.39523 22.61936,-0.53601 z M 159.0905,184.81867 c 2.25121,4.28803 -0.53601,12.2209 -5.14564,12.9713 -5.25284,0.7504 -4.07364,-9.96967 -10.07688,-12.43529 -7.39685,-2.46562 -14.5793,6.00324 -16.08012,12.43529 11.14889,-4.28803 21.76176,7.61126 21.76176,18.22413 -0.4288,12.54249 -8.46886,26.5858 -21.11855,30.12342 h -6.00325 c -13.61449,-0.7504 -19.61773,-16.93772 -15.22251,-28.51541 4.71684,-16.93772 11.57769,-36.34106 29.15861,-43.52351 9.11207,-4.18083 20.36816,3.43042 22.72658,10.72007 z m 229.30248,-9.00486 c -7.61126,-0.1072 -4.71684,10.72008 -3.53763,15.54411 3.75203,12.32809 7.82566,28.51541 20.26094,32.16024 7.28966,-1.28641 4.71685,-13.7217 3.96644,-17.68813 -5.03844,-11.68489 -7.61126,-24.97778 -20.68975,-30.01622 z m -351.082577,5.14563 v 185.67177 l 66.357287,-6.11045 z m 437.379197,0 -66.35728,179.56132 66.35728,6.11045 z m -126.38972,0.75041 30.55222,68.0725 -10.72007,4.71684 -21.44016,-46.41794 c -6.53925,3.21602 -13.9361,9.54086 -15.65131,-1.50082 -1.39362,-4.18082 9.11206,-5.46724 8.68326,-12.75689 -0.3216,-7.39686 2.35842,-13.0785 8.57606,-12.11369 z m -227.26567,29.37301 c -2.57281,5.46725 -4.39523,11.04168 -2.89442,17.04493 1.82241,9.43367 14.47211,6.86085 16.72333,-0.85761 2.89441,-5.36003 4.18082,-12.54248 -0.53601,-16.83052 -4.39523,-3.64483 -9.54087,-3.00162 -13.2929,0.6432 z m 352.04738,44.59553 c -0.10719,19.93935 1.17922,42.02271 -10.39847,59.28204 -0.9648,1.28641 -2.35842,2.03681 -3.96643,2.68002 -6.21764,-4.39524 -3.21602,-12.11369 1.28641,-16.61612 1.07201,7.82566 5.89604,-3.10883 7.07526,-6.00325 1.39361,-3.43042 3.85922,-18.97453 -1.07201,-10.93447 0.7504,4.28803 -7.28966,14.04329 -9.96968,8.68325 -5.36004,-15.43691 0,-32.69623 7.50406,-46.63234 6.11044,-6.64644 10.61287,4.71683 9.54086,9.54087 z M 45.811425,244.74391 c 0.632484,0.10721 1.43649,1.07201 2.65858,3.85923 v 65.49968 c -7.825657,-7.50405 -4.791875,-19.29614 -4.770435,-28.30101 0,-9.00486 1.768811,-17.47373 -1.372172,-24.87058 -4.952674,-1.82241 -6.206924,-18.22413 -3.398263,-13.61449 4.727554,5.14563 4.995557,-2.89443 6.88229,-2.57283 z m 191.642845,8.14727 c 8.68326,4.82403 14.7937,15.4369 11.57768,25.29938 -2.25122,16.29452 -28.94421,22.61936 -32.58904,31.83863 -1.28641,3.21602 27.229,1.71522 32.37464,1.71522 0.53601,4.28803 1.60801,11.47048 -4.07363,12.54249 -15.54411,-1.28641 -32.05304,-0.6432 -48.34755,-0.6432 0.4288,-12.0065 7.93285,-22.83378 18.22413,-28.72982 7.39686,-5.25284 16.50892,-9.96967 19.40334,-19.18894 1.92962,-4.82403 -0.64321,-9.96967 -4.93124,-12.32809 -4.50243,-3.10882 -11.79208,-2.46562 -14.1505,2.89442 -2.14401,4.07363 -4.71683,9.75528 -9.32646,10.29128 -3.10883,0.4288 -9.64807,0.536 -7.71847,-5.25284 1.50082,-6.00324 3.64484,-12.32809 8.79048,-16.29452 9.43367,-6.75365 21.33295,-7.18245 30.76662,-2.14401 z m 57.13802,-1.50082 c 7.28965,2.35842 12.86409,8.46887 15.32971,15.65132 6.53925,15.75852 5.89605,35.48346 -4.71684,49.20516 -4.82403,5.14564 -10.93447,9.75527 -18.22413,9.75527 -13.40009,-0.1072 -24.01298,-11.89929 -26.58579,-24.44178 -3.32323,-14.36491 -1.92962,-30.76663 7.39685,-42.66592 7.28965,-8.14725 17.15212,-11.04167 26.8002,-7.50405 z m 167.34043,8.68327 c -1.71522,6.32485 -3.53763,14.36491 -0.75041,20.68975 5.46724,-2.14402 5.78884,-10.29128 7.07525,-15.54412 0.96481,-6.53925 -3.75203,-13.5073 -6.32484,-5.14563 z m -188.88779,22.61936 c 0.6432,11.25608 1.82241,24.44178 10.39847,30.23062 5.25285,1.92962 10.39848,-2.35842 11.89929,-7.18245 2.03682,-6.75365 2.46562,-13.8289 2.57282,-20.79695 -0.2144,-7.61126 -1.60801,-16.08012 -7.18245,-21.54736 -13.07849,-4.71684 -16.40172,11.68488 -17.68813,19.29614 z M 446.8174,267.57768 v 65.60688 l -4.71683,7.18245 v -45.34593 c -4.93124,8.04006 -9.75527,9.75528 -6.53925,-0.9648 6.53925,-7.61126 5.14564,-18.65294 11.25608,-26.4786 z M 71.453853,280.65617 c 0.857607,3.85923 5.48868,19.08174 2.186895,15.86572 -2.111854,-1.3936 -3.880667,-5.25283 -3.655546,-6.53924 -1.661612,-3.21603 -3.173143,-6.53925 -4.513153,-9.86248 -3.162423,4.28804 -4.245152,8.89766 -3.366105,14.36491 0.214402,-1.71522 1.264969,-2.46562 3.634106,-0.7504 8.404543,13.5073 13.046338,31.19542 7.814939,46.63233 l -2.379858,1.17921 c -11.106001,-6.21764 -12.22089,-20.79695 -14.397066,-32.16023 -1.661613,-13.1857 -0.846886,-26.4786 2.465618,-39.34269 5.57444,-4.07363 9.819593,5.78884 12.21017,10.61287 z m -7.557655,21.65457 c -4.352352,5.03843 -2.422738,13.7217 -0.407363,19.72495 1.189929,5.89604 7.418295,10.93447 6.496368,1.7152 0.739686,-11.89929 -2.497779,-13.61449 -6.089005,-21.44015 z M 135.07752,376.70808 256,508.67225 376.92249,376.70808 Z m -22.94097,0.32161 -57.716902,5.25283 68.865782,44.05952 c -2.78722,-2.89442 -5.25283,-6.11044 -7.61126,-9.43367 -5.57443,-7.39685 -11.25607,-14.5793 -20.26094,-17.79532 -9.380071,-6.96805 -4.502432,-5.68164 3.108824,-2.78722 -1.07201,-1.92962 -0.750412,-2.78723 0.107196,-2.78723 2.35842,-0.2144 9.00487,4.50244 10.50568,6.75365 l 26.47859,33.87545 69.78771,44.70273 z m 287.72691,0 -45.45313,49.63396 c 6.86084,-3.32322 12.11369,-9.11207 18.22413,-13.2929 2.57282,-1.50081 3.96642,-2.03682 4.60963,-2.03682 2.25122,0 -5.78883,7.61126 -8.25445,11.04169 -10.07688,10.50567 -17.15213,24.65617 -30.65943,31.19543 l 20.26094,-26.26419 c -2.46561,1.39361 -6.43204,3.43042 -8.79046,4.39522 l -43.20191,47.16835 79.86458,-51.02757 c 5.78884,-7.18245 2.03681,-6.00325 -6.11045,-0.96481 l -12.22088,6.43204 c 12.22088,-14.6865 33.01784,-30.33782 42.88031,-38.16348 9.86248,-7.82565 17.04493,-10.50567 8.79047,-1.60801 l -13.5073,17.15214 c 10.72008,-8.14727 0.9648,4.18082 -4.82404,5.89604 -0.7504,1.07201 -1.50081,2.14401 -2.35841,3.10882 l 58.42442,-37.41308 z m -165.30361,18.11692 v 46.52515 h -14.36491 v -32.16024 c -5.36004,-1.5008 -11.14888,1.82241 -16.40172,-0.3216 -4.07363,-3.10882 1.072,-7.28966 4.82404,-6.32484 3.53762,-0.10721 8.14725,0.2144 9.96967,-3.43044 4.71684,-4.82403 10.29127,-4.71683 15.97292,-4.28803 z m 31.08822,0.53601 c 12.9713,1.28641 25.9426,0.64321 39.23549,0.64321 1.60801,3.21602 0.85761,8.36166 -3.53763,8.46886 -8.25446,0.3216 -22.51216,-1.71521 -27.76499,0.6432 -8.79048,11.25608 6.11044,4.07363 12.22088,5.57444 7.50405,1.17921 16.08012,3.10883 20.47535,9.86248 2.25122,3.32322 2.89442,7.82566 0.75041,11.47048 -6.21765,7.28965 -18.22414,12.32809 -27.1218,11.68489 -7.82566,-0.64321 -16.72333,-1.17921 -22.08337,-7.61126 -6.86084,-11.36328 11.25609,-7.18245 13.07851,-3.43042 6.43204,5.68163 21.76176,2.03681 22.19055,-5.03845 0.64321,-4.50243 -2.25121,-6.75365 -7.39685,-8.36166 -5.14563,-1.60801 -13.5073,1.07202 -18.54573,1.92962 -5.03845,0.85761 -10.29128,0.536 -9.64807,-4.71683 0.8576,-4.50243 2.89442,-8.68327 2.89442,-13.4001 0.10719,-3.21602 1.82241,-7.50405 5.25283,-7.71846 z m 143.11306,5.36005 c -0.2144,-0.21441 -7.50406,6.21763 -10.61289,8.68325 l -16.93772,14.04331 c 11.36329,-6.96805 20.68975,-12.8641 27.55061,-22.72656 z m -264.78595,15.2225 c 2.57283,0 8.04006,4.93123 10.07688,7.50406 l 27.9794,33.33944 c -8.25446,-2.25122 -14.25771,-7.61126 -18.86733,-14.6865 -6.96805,-7.82566 -12.11369,-17.79533 -22.72658,-21.01136 -9.64807,-5.36004 -5.57443,-6.86085 2.25122,-2.35841 -0.3216,-2.03682 0.2144,-2.78723 1.28641,-2.78723 z"
     id="path1"
     style="stroke-width:1.07201" />
</svg>
