<?xml version="1.0" encoding="UTF-8" standalone="no"?>
<!-- Uploaded to: SVG Repo, www.svgrepo.com, Generator: SVG Repo Mixer Tools -->

<svg
   width="800px"
   height="800px"
   viewBox="0 0 512 512"
   enable-background="new 0 0 512 512"
   id="Helm"
   version="1.1"
   xml:space="preserve"
   sodipodi:docname="helmet-svgrepo-com.svg"
   inkscape:version="1.4 (e7c3feb100, 2024-10-09)"
   xmlns:inkscape="http://www.inkscape.org/namespaces/inkscape"
   xmlns:sodipodi="http://sodipodi.sourceforge.net/DTD/sodipodi-0.dtd"
   xmlns="http://www.w3.org/2000/svg"
   xmlns:svg="http://www.w3.org/2000/svg"><defs
     id="defs20" /><sodipodi:namedview
     id="namedview20"
     pagecolor="#ffffff"
     bordercolor="#000000"
     borderopacity="0.25"
     inkscape:showpageshadow="2"
     inkscape:pageopacity="0.0"
     inkscape:pagecheckerboard="0"
     inkscape:deskcolor="#d1d1d1"
     inkscape:zoom="0.46078274"
     inkscape:cx="-31.468193"
     inkscape:cy="429.7036"
     inkscape:window-width="1728"
     inkscape:window-height="1075"
     inkscape:window-x="0"
     inkscape:window-y="0"
     inkscape:window-maximized="1"
     inkscape:current-layer="Helm" /><circle
     cx="264.2189"
     cy="12.547946"
     fill="#c7daff"
     r="10.198232"
     id="circle1"
     style="stroke-width:1.18226" /><path
     d="m 242.82104,19.842529 c 0,0 -133.72971,6.321579 -133.72971,170.202641 h 133.72971 z"
     fill="#ffffff"
     id="path1"
     style="stroke-width:1.18226" /><path
     d="m 285.61674,19.842529 c 0,0 133.72971,6.321579 133.72971,170.202641 H 285.61674 Z"
     fill="#c7daff"
     id="path2"
     style="stroke-width:1.18226" /><path
     d="M 264.21889,227.88006 H 137.0874 v 161.55437 c 0,10.11665 10.13794,16.97971 19.59252,13.38325 20.25105,-7.70483 56.16122,-17.53892 107.53897,-17.53892 51.37776,0 87.28792,9.83409 107.53897,17.53892 9.45458,3.59646 19.59252,-3.26779 19.59252,-13.38325 V 227.88006 Z"
     fill="#8c266b"
     id="path3"
     style="stroke-width:1.18226" /><path
     d="M 127.60325,190.04517 H 242.82104 V 30.746574 C 232.86518,110.39587 202.50339,162.71353 127.60325,190.04517 Z"
     fill="#c7daff"
     id="path4"
     style="stroke-width:1.18226" /><path
     d="m 281.96944,12.547944 h -17.75055 -17.75055 c -3.62483,0 -6.56512,2.939115 -6.56512,6.565126 v 167.52835 h 24.31567 24.31449 V 19.11307 c 0,-3.626011 -2.93911,-6.565126 -6.56394,-6.565126 z"
     fill="#ffffff"
     id="path5"
     style="stroke-width:1.18226" /><linearGradient
     gradientUnits="userSpaceOnUse"
     id="SVGID_1_"
     x1="140.4458"
     x2="140.4458"
     y1="449.0078"
     y2="277.4065"
     gradientTransform="matrix(1.1822666,0,0,1.1822666,-38.441345,-48.049129)"><stop
       offset="0"
       style="stop-color:#CC5697"
       id="stop5" /><stop
       offset="1"
       style="stop-color:#8E3979"
       id="stop6" /></linearGradient><path
     d="m 116.93567,241.94785 c -1.83488,21.67331 -11.10858,121.77937 -31.501492,194.66493 -1.338325,4.78226 -0.636052,9.91211 2.131633,14.03586 7.994481,11.91371 28.595469,36.67864 70.961999,55.47313 5.83685,2.59035 12.34758,-1.86326 11.87586,-8.23212 -2.32078,-31.32298 -7.28395,-112.31769 -3.60945,-192.3524 0,0 -36.71647,-20.71213 -48.4682,-63.66743 -0.21282,-0.77793 -1.32297,-0.72591 -1.39035,0.078 z"
     fill="url(#SVGID_1_)"
     id="path6"
     style="fill:url(#SVGID_1_);stroke-width:1.18226" /><linearGradient
     gradientUnits="userSpaceOnUse"
     id="SVGID_2_"
     x1="371.5547"
     x2="371.5547"
     y1="444.3154"
     y2="284.2495"
     gradientTransform="matrix(1.1822666,0,0,1.1822666,-38.441345,-48.049129)"><stop
       offset="0"
       style="stop-color:#CC5697"
       id="stop7" /><stop
       offset="1"
       style="stop-color:#8E3979"
       id="stop8" /></linearGradient><path
     d="m 411.50211,241.94785 c 1.83488,21.67331 11.10858,121.77937 31.5015,194.66493 1.33832,4.78226 0.63606,9.91211 -2.13163,14.03586 -7.99567,11.91371 -28.59548,36.67864 -70.96201,55.47313 -5.83685,2.59035 -12.34758,-1.86326 -11.87586,-8.23212 2.32078,-31.32298 7.28395,-112.31769 3.60946,-192.3524 0,0 36.71529,-20.71213 48.46938,-63.66743 0.21163,-0.77793 1.32178,-0.72591 1.38916,0.078 z"
     fill="url(#SVGID_2_)"
     id="path8"
     style="fill:url(#SVGID_2_);stroke-width:1.18226" /><path
     d="m 149.33568,234.1177 c 0,0 6.6337,64.12613 102.72596,59.33559 l -0.63842,34.27392 c 0,0 -124.56833,15.11054 -137.46687,-93.60951 z"
     fill="#ffffff"
     id="path9"
     style="stroke-width:1.18226" /><circle
     cx="264.2189"
     cy="73.770439"
     fill="#c7daff"
     r="10.198232"
     id="circle9"
     style="stroke-width:1.18226" /><circle
     cx="264.2189"
     cy="139.43471"
     fill="#c7daff"
     r="10.198232"
     id="circle10"
     style="stroke-width:1.18226" /><path
     d="m 379.1021,234.1177 c 0,0 -6.6337,64.12613 -102.72596,59.33559 l 0.63842,34.27392 c 0,0 124.56833,15.11054 137.46687,-93.60951 z"
     fill="#ffffff"
     id="path10"
     style="stroke-width:1.18226" /><path
     d="m 264.21889,234.1177 h -16.48197 v 97.29936 c 0,5.69616 4.61792,10.31527 10.31645,10.31527 h 6.16552 6.16671 c 5.69734,0 10.31645,-4.61793 10.31645,-10.31527 V 234.1177 Z"
     fill="#c7daff"
     id="path11"
     style="stroke-width:1.18226" /><path
     d="m 285.61674,190.04517 h 133.72971 c 0,-5.21853 -0.14187,-10.27035 -0.40552,-15.17439 H 285.61674 Z"
     fill="#819fea"
     id="path12"
     style="stroke-width:1.18226" /><path
     d="m 371.87608,254.25407 h 38.56317 c 1.78759,-6.20099 3.18148,-12.87253 4.04336,-20.13755 H 379.1021 c 0,9.7e-4 -0.94227,9.07389 -7.22602,20.13755 z"
     fill="#819fea"
     id="path13"
     style="stroke-width:1.18226" /><path
     d="m 149.33568,234.1177 h -35.3805 c 0.86187,7.26503 2.25576,13.93656 4.04453,20.13754 h 38.5608 c -6.28138,-11.06483 -7.22483,-20.13754 -7.22483,-20.13754 z"
     fill="#819fea"
     id="path14"
     style="stroke-width:1.18226" /><polygon
     fill="#819fea"
     points="256,238.666 242.059,238.666 242.059,255.697 269.941,255.697 269.941,238.666 "
     id="polygon14"
     transform="matrix(1.1822666,0,0,1.1822666,-38.441345,-48.049129)" /><path
     d="m 109.49685,174.87078 c -0.26365,4.90404 -0.40552,9.95586 -0.40552,15.17439 h 133.72971 v -15.17439 z"
     fill="#819fea"
     id="path15"
     style="stroke-width:1.18226" /><polygon
     fill="#c7daff"
     points="276.566,188.553 235.434,188.553 235.434,198.509 256,198.509 276.566,198.509 "
     id="polygon15"
     transform="matrix(1.1822666,0,0,1.1822666,-38.441345,-48.049129)" /><path
     d="M 421.29128,186.64142 H 264.21889 107.1465 c -4.02797,0 -7.294577,3.26542 -7.294577,7.29459 v 36.47174 c 0,4.02916 3.266607,7.29458 7.294577,7.29458 h 157.07239 157.07239 c 4.02799,0 7.29458,-3.26542 7.29458,-7.29458 v -36.47174 c 0,-4.02917 -3.26542,-7.29459 -7.29458,-7.29459 z"
     fill="#ffffff"
     id="path16"
     style="stroke-width:1.18226" /><circle
     cx="130.1806"
     cy="212.17247"
     fill="#c7daff"
     r="10.197049"
     id="circle16"
     style="stroke-width:1.18226" /><circle
     cx="197.19977"
     cy="212.17247"
     fill="#c7daff"
     r="10.198232"
     id="circle17"
     style="stroke-width:1.18226" /><circle
     cx="264.2189"
     cy="212.17247"
     fill="#c7daff"
     r="10.198232"
     id="circle18"
     style="stroke-width:1.18226" /><circle
     cx="398.25717"
     cy="212.17247"
     fill="#c7daff"
     r="10.197049"
     id="circle19"
     style="stroke-width:1.18226" /><circle
     cx="331.23804"
     cy="212.17247"
     fill="#c7daff"
     r="10.198232"
     id="circle20"
     style="stroke-width:1.18226" /></svg>
