<?xml version="1.0" encoding="UTF-8" standalone="no"?>
<!-- Uploaded to: SVG Repo, www.svgrepo.com, Generator: SVG Repo Mixer Tools -->

<svg
   width="800px"
   height="800px"
   viewBox="0 0 1024 1024"
   class="icon"
   version="1.1"
   id="svg7"
   sodipodi:docname="write-document-svgrepo-com.svg"
   inkscape:version="1.3.2 (1:1.3.2+202311252150+091e20ef0f)"
   xmlns:inkscape="http://www.inkscape.org/namespaces/inkscape"
   xmlns:sodipodi="http://sodipodi.sourceforge.net/DTD/sodipodi-0.dtd"
   xmlns="http://www.w3.org/2000/svg"
   xmlns:svg="http://www.w3.org/2000/svg">
  <defs
     id="defs7" />
  <sodipodi:namedview
     id="namedview7"
     pagecolor="#ffffff"
     bordercolor="#666666"
     borderopacity="1.0"
     inkscape:showpageshadow="2"
     inkscape:pageopacity="0.0"
     inkscape:pagecheckerboard="0"
     inkscape:deskcolor="#d1d1d1"
     inkscape:zoom="1.465"
     inkscape:cx="399.6587"
     inkscape:cy="400"
     inkscape:window-width="2560"
     inkscape:window-height="1367"
     inkscape:window-x="0"
     inkscape:window-y="37"
     inkscape:window-maximized="1"
     inkscape:current-layer="svg7" />
  <path
     d="M 989.95854,128.39744 H 893.12726 V 72.545272 c 0,-15.17106 -12.36248,-27.53354 -27.52978,-27.53354 -15.09718,0 -27.38704,12.36248 -27.38704,27.53354 V 128.39744 H 723.62489 V 72.545272 c 0,-15.17106 -12.36624,-27.53354 -27.53353,-27.53354 -15.09342,0 -27.38704,12.36248 -27.38704,27.53354 V 128.39744 H 554.11877 V 72.545272 c 0,-15.17106 -12.36249,-27.53354 -27.52978,-27.53354 -15.09718,0 -27.3908,12.36248 -27.3908,27.53354 V 128.39744 H 384.61264 V 72.545272 c 0,-15.17106 -12.36248,-27.53354 -27.4609,-27.53354 -15.16731,0 -27.45716,12.36248 -27.45716,27.53354 v 55.852168 h -96.83131 c -14.23319,0 -25.80807,11.57489 -25.80807,25.80808 v 51.973 L 160.76194,159.95789 C 135.96309,134.94118 95.274465,135.22792 70.187632,160.31475 L 17.998003,212.43051 C -7.0888357,237.59123 -7.375578,278.2786 17.56726,303.22144 L 207.0552,492.63926 v 445.32859 c 0,14.23327 11.57488,25.80807 25.80807,25.80807 h 757.09527 c 14.23326,0 25.80806,-11.5748 25.80806,-25.80807 V 154.20552 c 0,-14.23319 -11.5761,-25.80808 -25.80806,-25.80808 z"
     fill="#27323a"
     id="path1"
     style="stroke-width:1.22294" />
  <path
     d="m 109.38119,316.84484 65.12685,-65.05422 335.97704,335.95574 -2.66082,62.39591 -62.32579,2.73095 h -0.0701 z"
     fill="#79ccbf"
     id="path2"
     style="stroke-width:1.22294" />
  <path
     d="m 590.92323,757.4666 c -52.76437,-20.05569 -121.41352,-51.32565 -126.01392,-52.62037 -0.36063,-0.35686 -1.2221,-1.2221 -1.72672,-1.72296 1.15198,-10.78352 2.51682,-22.79039 3.16168,-28.75564 l 0.50462,-0.50462 63.18727,-1.57896 1.43872,-63.11715 0.21287,-0.14399 c 5.96649,-0.71749 18.11611,-2.15621 29.04363,-3.37831 0.50462,0.50461 1.29597,1.3661 1.72671,1.72671 1.29222,4.31367 32.9228,72.81882 53.19512,125.43919 -8.69745,-1.86946 -16.46328,-1.14821 -21.20768,3.59618 -4.6004,4.66928 -5.39175,12.36248 -3.5223,21.05992 z"
     fill="#ffffff"
     id="path3"
     style="stroke-width:1.22294" />
  <path
     d="M 956.38841,906.26967 H 813.84109 c 47.15474,-14.51994 96.11007,-34.79226 142.54732,-62.82666 z"
     fill="#f4ce73"
     id="path4"
     style="stroke-width:1.22294" />
  <path
     d="m 675.46093,898.36359 c 63.11339,-35.5135 133.20252,-85.04231 173.38654,-125.51306 19.76769,17.75549 49.60268,33.71415 77.27646,44.71054 -85.32654,48.38059 -179.49578,71.02323 -250.663,80.80252 z"
     fill="#79ccbf"
     id="path5"
     style="stroke-width:1.22294" />
  <path
     d="m 956.38841,790.31802 c -28.68176,-9.70542 -83.52971,-35.58361 -91.58229,-51.39827 -2.80481,-5.46188 -8.1227,-9.12818 -14.2332,-9.84942 -6.03912,-0.7876 -12.14961,1.58272 -16.10265,6.25699 -59.66498,69.29652 -230.32057,169.35963 -268.565,170.94235 H 264.13323 V 549.71855 l 176.76483,176.76484 0.36062,-0.0701 3.6663,3.66631 c 0.64736,0.71748 1.50885,1.2221 2.58694,1.50884 l 209.69015,78.9293 c 1.14821,0.28675 2.37031,0.0738 3.59242,-0.14399 2.08733,-0.21287 4.16966,-0.86148 5.6785,-2.37033 1.3686,-1.36609 2.1562,-3.09155 2.51807,-4.81826 0.50462,-1.58272 0.57474,-3.16168 0.144,-4.60041 L 589.27165,589.90257 c -0.43074,-1.00798 -0.86149,-1.86947 -1.58272,-2.66083 l -3.5223,-3.5223 0.0738,-0.57473 L 264.13316,263.2553 v -79.57667 h 65.56135 v 30.19185 c -10.49678,8.2667 -17.61526,20.48644 -17.61526,34.86614 0,24.86896 20.2022,45.07115 45.07116,45.07115 24.87272,0 45.00229,-20.20219 45.00229,-45.07115 0,-14.3797 -7.11848,-26.59944 -17.54138,-34.86614 v -30.19185 h 114.58555 v 30.19185 c -10.49302,8.2667 -17.61149,20.48644 -17.61149,34.86614 0,24.86896 20.19844,45.07115 45.00228,45.07115 24.86897,0 45.07116,-20.20219 45.07116,-45.07115 0,-14.30583 -7.11847,-26.52556 -17.54138,-34.79601 V 183.67989 H 668.703 v 30.19185 c -10.4229,8.2667 -17.6115,20.48643 -17.6115,34.86613 0,24.86896 20.12832,45.07116 44.99853,45.07116 24.87272,0 45.07116,-20.2022 45.07116,-45.07116 0,-14.30582 -7.11472,-26.52556 -17.53762,-34.79602 v -30.26072 h 114.58559 v 30.19186 c -10.4229,8.26669 -17.61525,20.48644 -17.61525,34.86613 0,24.86896 20.12832,45.07116 45.00228,45.07117 24.87272,0 45.07116,-20.20221 45.07116,-45.07117 0,-14.30582 -7.11471,-26.52555 -17.54137,-34.79601 v -30.26072 h 63.26116 v 606.63563 z"
     fill="#f4ce73"
     id="path6"
     style="stroke-width:1.22294" />
  <path
     d="M 147.0847,225.12231 82.388591,289.85098 51.335255,258.76133 116.03262,194.06522 Z"
     fill="#ffffff"
     id="path7"
     style="stroke-width:1.22294" />
</svg>
